HIERARCHY
ROOT Hips
{
	OFFSET 52.466499 -5.347144 84.345200
	CHANNELS 6 Xposition Yposition Zposition Xrotation Yrotation Zrotation
	JOINT spine
	{
		OFFSET 0.000000 -0.342408 5.954376
		CHANNELS 3 Xrotation Yrotation Zrotation
		JOINT spine1
		{
			OFFSET 0.000000 -0.000001 8.856018
			CHANNELS 3 Xrotation Yrotation Zrotation
			JOINT spine2
			{
				OFFSET 0.000000 -0.000001 8.485672
				CHANNELS 3 Xrotation Yrotation Zrotation
				JOINT Neck
				{
					OFFSET 0.000000 -1.038703 21.786301
					CHANNELS 3 Xrotation Yrotation Zrotation
					JOINT Head
					{
						OFFSET 0.000000 -0.000001 6.582199
						CHANNELS 3 Xrotation Yrotation Zrotation
						End Site
						{
							OFFSET 0.000000 5.254357 15.932602
						}
					}
				}
				JOINT RightShoulder
				{
					OFFSET -3.573071 0.497524 9.163864
					CHANNELS 3 Xrotation Yrotation Zrotation
					JOINT RightArm
					{
						OFFSET 0.000000 -0.000002 12.019196
						CHANNELS 3 Xrotation Yrotation Zrotation
						JOINT RightArmRoll
						{
							OFFSET 0.000000 -0.000001 6.067551
							CHANNELS 3 Xrotation Yrotation Zrotation
							JOINT RightForeArm
							{
								OFFSET 0.000000 -0.000003 17.672607
								CHANNELS 3 Xrotation Yrotation Zrotation
								JOINT RightForeArmRoll
								{
									OFFSET 0.000000 -0.000001 6.808716
									CHANNELS 3 Xrotation Yrotation Zrotation
									JOINT RightHand
									{
										OFFSET 0.000000 -0.000002 13.663605
										CHANNELS 3 Xrotation Yrotation Zrotation
										End Site
										{
											OFFSET 0.000000 0.000000 0.100006
										}
									}
								}
							}
						}
					}
				}
				JOINT LeftShoulder
				{
					OFFSET 3.573071 0.497524 9.163864
					CHANNELS 3 Xrotation Yrotation Zrotation
					JOINT LeftArm
					{
						OFFSET 0.000000 -0.000002 12.019196
						CHANNELS 3 Xrotation Yrotation Zrotation
						JOINT LeftArmRoll
						{
							OFFSET 0.000000 -0.000001 6.067551
							CHANNELS 3 Xrotation Yrotation Zrotation
							JOINT LeftForeArm
							{
								OFFSET 0.000000 -0.000003 17.672607
								CHANNELS 3 Xrotation Yrotation Zrotation
								JOINT LeftForeArmRoll
								{
									OFFSET 0.000000 -0.000001 6.808716
									CHANNELS 3 Xrotation Yrotation Zrotation
									JOINT LeftHand
									{
										OFFSET 0.000000 -0.000002 13.663605
										CHANNELS 3 Xrotation Yrotation Zrotation
										End Site
										{
											OFFSET 0.000000 0.000000 0.100006
										}
									}
								}
							}
						}
					}
				}
			}
		}
	}
	JOINT RightUpLeg
	{
		OFFSET -5.277740 0.811859 -0.967796
		CHANNELS 3 Xrotation Yrotation Zrotation
		JOINT RightUpLegRoll
		{
			OFFSET 0.000000 -0.000003 16.021400
			CHANNELS 3 Xrotation Yrotation Zrotation
			JOINT RightLeg
			{
				OFFSET 0.000000 0.000003 -19.840103
				CHANNELS 3 Xrotation Yrotation Zrotation
				JOINT RightLegRoll
				{
					OFFSET 0.000000 -0.000003 19.904999
					CHANNELS 3 Xrotation Yrotation Zrotation
					JOINT RightFoot
					{
						OFFSET 0.000000 -0.000003 16.567497
						CHANNELS 3 Xrotation Yrotation Zrotation
						JOINT RightToeBase
						{
							OFFSET 0.000000 -0.000002 13.849602
							CHANNELS 3 Xrotation Yrotation Zrotation
							End Site
							{
								OFFSET 0.005871 0.773116 6.707275
							}
						}
					}
				}
			}
		}
	}
	JOINT LeftUpLeg
	{
		OFFSET 5.277740 0.811859 -0.967796
		CHANNELS 3 Xrotation Yrotation Zrotation
		JOINT LeftUpLegRoll
		{
			OFFSET 0.000000 -0.000003 16.021500
			CHANNELS 3 Xrotation Yrotation Zrotation
			JOINT LeftLeg
			{
				OFFSET 0.000000 -0.000003 19.840004
				CHANNELS 3 Xrotation Yrotation Zrotation
				JOINT LeftLegRoll
				{
					OFFSET 0.000000 -0.000003 20.089005
					CHANNELS 3 Xrotation Yrotation Zrotation
					JOINT LeftFoot
					{
						OFFSET 0.000000 -0.000002 16.383499
						CHANNELS 3 Xrotation Yrotation Zrotation
						JOINT LeftToeBase
						{
							OFFSET 0.000000 -0.000002 13.849594
							CHANNELS 3 Xrotation Yrotation Zrotation
							End Site
							{
								OFFSET -0.026310 0.773116 6.707275
							}
						}
					}
				}
			}
		}
	}
}
MOTION
Frames: 11
Frame Time: 0.041667
51.055595 -2.905462 84.318001 -6.515887 1.196582 8.379109 -1.298492 -0.110522 0.113034 1.408320 -0.226437 0.224422 3.053382 -0.223735 0.222570 9.113068 22.286156 -8.233300 7.420970 -36.357927 -6.254141 -5.398610 -6.974104 0.906708 -92.701226 -175.034225 -104.236548 0.000003 -0.000001 0.000009 94.064798 1.650245 -4.699573 -0.000001 -0.000002 -3.000003 -5.000151 -7.999909 0.000017 -91.374920 82.074367 97.080491 -88.417762 116.603733 83.751117 0.000002 -0.000005 0.000005 -0.026118 -3.640612 1.990849 -0.000001 0.000007 3.011598 -5.000163 7.999939 -0.000009 3.444137 -182.933722 0.996326 179.999991 -0.000005 -1.138997 174.844660 -1.753876 -0.269212 -0.000002 -0.000003 0.035348 68.725773 6.901517 2.106727 25.456858 -7.355619 -0.000003 -2.834741 175.304728 -2.024680 -0.000004 -0.000005 -1.093719 -14.022157 2.332814 0.708020 -0.000007 -0.000003 -0.250589 71.393181 -6.838356 -2.113139 25.456952 7.355609 0.000000 
51.061600 -2.909701 84.315300 -6.504931 1.186474 8.374765 -1.301851 -0.110928 0.112464 1.401180 -0.226450 0.223550 3.046252 -0.223760 0.221281 9.150313 22.213203 -8.227057 7.401400 -36.277850 -6.247703 -5.453006 -6.972466 0.813830 -92.975971 -174.947072 -104.136541 0.000002 -0.000003 0.000010 93.886804 1.657292 -4.699252 0.000000 -0.000002 -3.000001 -5.000151 -7.999907 0.000015 -91.132912 82.099892 96.827931 -88.382156 116.560703 83.714337 0.000002 -0.000004 0.000003 -0.026113 -3.640610 1.990850 -0.000001 0.000007 3.011602 -5.000164 7.999939 -0.000010 3.433801 -182.915785 1.002002 179.999991 -0.000005 -1.138996 174.848444 -1.748907 -0.269644 -0.000002 -0.000002 0.035347 68.727112 6.901460 2.106432 25.456856 -7.355620 -0.000002 -2.829290 175.324686 -2.017331 -0.000004 -0.000005 -1.093648 -14.002887 2.337377 0.707324 -0.000006 -0.000003 -0.249681 71.386453 -6.838351 -2.113950 25.456952 7.355616 0.000000 
51.071095 -2.921352 84.309601 -6.494423 1.176265 8.370023 -1.305172 -0.111305 0.111888 1.394140 -0.226437 0.222655 3.039213 -0.223757 0.220014 9.189964 22.138533 -8.221675 7.379674 -36.196594 -6.242240 -5.508016 -6.973164 0.719472 -93.250776 -174.859851 -104.036854 0.000003 -0.000001 0.000010 93.703700 1.664561 -4.699813 -0.000000 -0.000002 -3.000003 -5.000151 -7.999909 0.000015 -90.890830 82.125778 96.575159 -88.347431 116.517577 83.678212 0.000001 -0.000004 0.000004 -0.026113 -3.640610 1.990852 -0.000001 0.000006 3.011600 -5.000161 7.999940 -0.000008 3.424030 -182.896852 1.007981 179.999991 -0.000005 -1.138998 174.852078 -1.744944 -0.269175 -0.000002 -0.000002 0.035346 68.728362 6.901395 2.106242 25.456853 -7.355621 -0.000002 -2.823642 175.344630 -2.010302 -0.000005 -0.000005 -1.093582 -13.984318 2.342233 0.706702 -0.000007 -0.000003 -0.248779 71.379507 -6.838346 -2.114876 25.456950 7.355612 -0.000000 
51.085499 -2.916384 84.313911 -6.484456 1.166035 8.364903 -1.308431 -0.111633 0.111308 1.387241 -0.226388 0.221740 3.032313 -0.223718 0.218775 9.231530 22.061677 -8.216982 7.355878 -36.113174 -6.237686 -5.563565 -6.976926 0.623625 -93.525111 -174.772588 -103.937768 0.000002 -0.000002 0.000010 93.515446 1.672062 -4.698317 -0.000000 -0.000002 -3.000001 -5.000151 -7.999908 0.000016 -90.648590 82.152013 96.322094 -88.312932 116.474164 83.642053 0.000002 -0.000004 0.000004 -0.026112 -3.640612 1.990850 -0.000003 0.000006 3.011599 -5.000162 7.999938 -0.000011 3.414995 -182.878902 1.014179 179.999991 -0.000005 -1.138998 174.855452 -1.740967 -0.268713 -0.000002 -0.000003 0.035344 68.729503 6.901325 2.106058 25.456854 -7.355621 -0.000002 -2.817866 175.363591 -2.003613 -0.000005 -0.000005 -1.093519 -13.966756 2.347381 0.706171 -0.000007 -0.000003 -0.247898 71.372554 -6.838305 -2.115695 25.456950 7.355614 -0.000001 
51.097198 -2.911882 84.317795 -6.475141 1.155822 8.359382 -1.311621 -0.111895 0.110729 1.380511 -0.226292 0.220800 3.025573 -0.223634 0.217572 9.274477 21.981972 -8.212770 7.330168 -36.026769 -6.234142 -5.619563 -6.984497 0.526267 -93.798455 -174.685407 -103.839455 0.000003 -0.000001 0.000011 93.322432 1.679743 -4.697714 -0.000001 -0.000002 -2.999999 -5.000151 -7.999909 0.000012 -90.406208 82.178548 96.068749 -88.279130 116.430533 83.606372 0.000002 -0.000004 0.000005 -0.026115 -3.640611 1.990854 -0.000001 0.000007 3.011601 -5.000163 7.999938 -0.000008 3.406847 -182.859955 1.020698 179.999991 -0.000005 -1.138997 174.858471 -1.736989 -0.269261 -0.000002 -0.000003 0.035341 68.730541 6.901285 2.105885 25.456860 -7.355619 -0.000002 -2.812040 175.383548 -1.997469 -0.000005 -0.000005 -1.093480 -13.950596 2.352845 0.705756 -0.000007 -0.000003 -0.247053 71.365498 -6.838300 -2.116427 25.456955 7.355613 0.000001 
51.104504 -2.922013 84.313393 -6.466567 1.145686 8.353437 -1.314733 -0.112074 0.110162 1.373990 -0.226144 0.219836 3.019053 -0.223496 0.216416 9.318291 21.898853 -8.208832 7.302628 -35.936682 -6.231194 -5.675922 -6.996594 0.427397 -94.070310 -174.598336 -103.742090 0.000003 -0.000002 0.000011 93.124684 1.687588 -4.696038 0.000000 -0.000001 -2.999999 -5.000152 -7.999909 0.000016 -90.163633 82.205391 95.815109 -88.245552 116.386820 83.570704 0.000003 -0.000003 0.000004 -0.026116 -3.640612 1.990853 -0.000003 0.000006 3.011601 -5.000167 7.999939 -0.000011 3.399741 -182.840025 1.027565 179.999991 -0.000005 -1.138997 174.861025 -1.734003 -0.268914 -0.000002 -0.000002 0.035340 68.731449 6.901164 2.105706 25.456858 -7.355622 -0.000002 -2.806276 175.402509 -1.991842 -0.000004 -0.000004 -1.093449 -13.936143 2.358631 0.705478 -0.000006 -0.000003 -0.246253 71.358545 -6.838259 -2.117247 25.456953 7.355613 -0.000000 
51.119698 -2.913675 84.316803 -6.458810 1.135687 8.347089 -1.317742 -0.112150 0.109608 1.367710 -0.225933 0.218845 3.012773 -0.223295 0.215316 9.362488 21.811861 -8.205017 7.273387 -35.841896 -6.229092 -5.732571 -7.013939 0.327000 -94.340130 -174.511552 -103.646229 0.000003 -0.000001 0.000010 92.922265 1.695569 -4.695249 0.000000 -0.000002 -3.000001 -5.000152 -7.999909 0.000015 -89.920089 82.232493 95.560364 -88.212460 116.342792 83.535345 0.000002 -0.000004 0.000004 -0.026113 -3.640610 1.990854 -0.000001 0.000006 3.011600 -5.000162 7.999938 -0.000011 3.393846 -182.821078 1.034651 179.999991 -0.000005 -1.138996 174.863033 -1.730022 -0.269507 -0.000002 -0.000003 0.035338 68.732078 6.901132 2.105460 25.456856 -7.355621 -0.000003 -2.800634 175.421456 -1.986860 -0.000005 -0.000004 -1.093430 -13.923696 2.364778 0.705361 -0.000006 -0.000003 -0.245515 71.351701 -6.838245 -2.117865 25.456953 7.355612 -0.000000 
51.124897 -2.924692 84.320389 -6.451990 1.125896 8.340316 -1.320663 -0.112109 0.109076 1.361700 -0.225648 0.217827 3.006772 -0.223022 0.214280 9.406525 21.720319 -8.201104 7.242557 -35.741615 -6.227514 -5.789420 -7.037285 0.225052 -94.607382 -174.425164 -103.551842 0.000003 -0.000002 0.000010 92.715570 1.703819 -4.694384 0.000000 -0.000002 -3.000002 -5.000154 -7.999909 0.000012 -89.675528 82.259841 95.304485 -88.179436 116.298683 83.499841 0.000003 -0.000003 0.000005 -0.026112 -3.640610 1.990854 -0.000002 0.000006 3.011602 -5.000165 7.999939 -0.000008 3.389316 -182.802117 1.042035 179.999991 -0.000005 -1.139994 174.864358 -1.727045 -0.269199 -0.000002 -0.000003 0.035336 68.732378 6.901080 2.105332 25.456856 -7.355622 -0.000003 -2.795219 175.438409 -1.982529 -0.000004 -0.000005 -1.093431 -13.913451 2.371279 0.705418 -0.000007 -0.000003 -0.244849 71.344973 -6.838231 -2.118577 25.456952 7.355615 -0.000001 
51.161797 -2.893053 84.314209 -6.445985 1.116051 8.333242 -1.323581 -0.111949 0.108543 1.355730 -0.225287 0.216755 3.000793 -0.222671 0.213300 9.453595 21.624954 -8.197867 7.208340 -35.637137 -6.227185 -5.846650 -7.066295 0.121172 -94.872571 -174.339554 -103.458528 0.000003 -0.000002 0.000011 92.502352 1.712239 -4.693398 0.000000 -0.000001 -2.999999 -5.000152 -7.999909 0.000014 -89.444667 82.288097 95.062197 -88.151706 116.254095 83.467958 0.000003 -0.000003 0.000003 -0.026114 -3.640610 1.990851 -0.000001 0.000006 3.011597 -5.000164 7.999938 -0.000009 3.386518 -182.783157 1.049783 179.999991 -0.000005 -1.139994 174.866011 -1.724057 -0.268880 -0.000002 -0.000003 0.035303 68.732139 6.900993 2.105330 25.456856 -7.355621 -0.000003 -2.790145 175.456386 -1.978997 -0.000004 -0.000005 -1.093430 -13.905619 2.378329 0.705685 -0.000007 -0.000003 -0.244243 71.338136 -6.838248 -2.119097 25.456955 7.355615 -0.000002 
51.165298 -2.901754 84.315598 -6.440593 1.105937 8.325955 -1.326633 -0.111691 0.107993 1.349549 -0.224854 0.215610 2.994613 -0.222250 0.212356 9.506601 21.526883 -8.196026 7.169261 -35.530350 -6.228659 -5.904502 -7.099872 0.015084 -95.136578 -174.255010 -103.365808 0.000003 -0.000002 0.000010 92.281156 1.721020 -4.692264 0.000000 -0.000002 -3.000001 -5.000152 -7.999909 0.000017 -89.236408 82.317802 94.842361 -88.132998 116.209057 83.442270 -0.000000 -0.000004 0.000004 -0.026113 -3.640611 1.990849 -0.000001 0.000006 3.011602 -5.000163 7.999938 -0.000011 3.385530 -182.763199 1.058011 179.999991 -0.000005 -1.139995 174.868866 -1.721085 -0.268527 -0.000002 -0.000003 0.035214 68.731060 6.900927 2.105186 25.456860 -7.355620 -0.000003 -2.785385 175.473324 -1.976086 -0.000004 -0.000005 -1.093440 -13.899991 2.386048 0.706167 -0.000006 -0.000003 -0.243673 71.330964 -6.838206 -2.119630 25.456950 7.355613 -0.000001 
51.165901 -2.918944 84.318993 -6.435811 1.095603 8.318417 -1.329742 -0.111347 0.107428 1.343229 -0.224359 0.214400 2.988301 -0.221767 0.211451 9.564659 21.426450 -8.195418 7.126005 -35.421498 -6.231582 -5.962973 -7.137602 -0.093084 -95.399574 -174.171367 -103.273287 0.000003 -0.000000 0.000010 92.052713 1.730182 -4.691009 0.000001 -0.000002 -2.999999 -5.000152 -7.999908 0.000017 -89.045620 82.348736 94.639852 -88.121311 116.163623 83.421356 0.000001 -0.000004 0.000004 -0.026116 -3.640611 1.990851 -0.000002 0.000006 3.011599 -5.000164 7.999938 -0.000011 3.386094 -182.743228 1.066604 179.999991 -0.000005 -1.139994 174.872582 -1.719095 -0.269233 -0.000002 -0.000003 0.035084 68.729366 6.900890 2.104986 25.456856 -7.355622 -0.000002 -2.780836 175.490304 -1.973787 -0.000003 -0.000005 -1.093460 -13.896275 2.394357 0.706843 -0.000006 -0.000003 -0.243134 71.323369 -6.838160 -2.120291 25.456952 7.355613 -0.000001 
